<svg width="32" height="32" viewBox="0 0 32 32" fill="none" xmlns="http://www.w3.org/2000/svg">
<g clip-path="url(#clip0_38_2439)">
<path d="M10.8601 0.745117C16.7525 -1.21428 22.5885 0.869071 27.1638 4.90723C29.9158 7.5872 31.8189 11.9262 31.9773 15.8301C31.9858 16.2744 31.991 16.7187 31.9939 17.1631C31.9958 17.3727 31.9978 17.5829 31.9998 17.7988C31.9793 19.7035 31.5507 21.6089 30.8015 23.3643C30.775 23.4266 30.7507 23.4898 30.7234 23.5518C30.7059 23.5912 30.6865 23.6297 30.6687 23.6689C30.5969 23.8278 30.5251 23.9865 30.448 24.1426C30.2525 24.5383 30.0395 24.9245 29.8113 25.2998C29.5828 25.6754 29.3389 26.0402 29.0798 26.3916C28.8209 26.7428 28.5469 27.0809 28.2595 27.4043C28.1484 27.5149 28.0354 27.6225 27.9226 27.7285C27.8795 27.769 27.8361 27.8088 27.7927 27.8486C27.7311 27.9053 27.6693 27.9613 27.6072 28.0166C27.5393 28.0769 27.4705 28.1356 27.4021 28.1943C27.3538 28.2358 27.3061 28.2777 27.2576 28.3184C27.2062 28.3614 27.154 28.4032 27.1023 28.4453C27.0258 28.5077 26.9491 28.5694 26.8718 28.6299C26.8429 28.6525 26.8139 28.6749 26.7849 28.6973C26.7035 28.7601 26.6219 28.8221 26.5398 28.8828C26.5019 28.9108 26.4645 28.9393 26.4265 28.9668C26.3326 29.0349 26.2382 29.1015 26.1433 29.167C26.1298 29.1763 26.1168 29.1861 26.1033 29.1953C26.0978 29.199 26.0921 29.2023 26.0867 29.2061C24.6172 30.2099 23.0357 30.9007 21.3669 31.3408C21.3341 31.3495 21.3012 31.3577 21.2683 31.3662C21.1813 31.3886 21.0941 31.4106 21.0066 31.4316C20.9313 31.4499 20.8557 31.4671 20.78 31.4844C20.7575 31.4895 20.7352 31.495 20.7126 31.5C19.9139 31.6797 19.0983 31.8072 18.2683 31.8877C17.2319 31.9882 16.1736 32.0177 15.0994 31.9902C14.9578 31.9831 14.8182 31.9707 14.6804 31.959C14.5938 31.9558 14.5154 31.9505 14.4431 31.9453C14.415 31.9462 14.3865 31.9474 14.3582 31.9482C14.1905 31.9336 14.045 31.9063 13.9089 31.8682C13.2072 31.7587 12.5409 31.5829 11.8689 31.334C11.8174 31.3171 11.7624 31.3014 11.7048 31.2822C11.6016 31.2382 11.4991 31.1923 11.3962 31.1475C11.3261 31.1181 11.2568 31.0856 11.1863 31.0547C11.1077 31.02 11.0283 30.9873 10.95 30.9521C10.8244 30.8987 10.6984 30.8451 10.5691 30.79C10.0194 30.5513 9.50144 30.288 8.99487 29.9805C8.66711 29.7978 8.34529 29.6092 8.03198 29.4062C7.98804 29.3778 7.94479 29.3483 7.90112 29.3193C7.86202 29.3102 7.82028 29.3011 7.7771 29.291V29.2373C7.53617 29.0743 7.30006 28.9029 7.06714 28.7236C6.64264 28.415 6.23945 28.0741 5.87476 27.6934C5.87063 27.6893 5.86618 27.6857 5.86206 27.6816C5.76926 27.5913 5.67642 27.5003 5.58081 27.4072C4.77356 26.6127 4.06821 25.8041 3.43628 24.9502C3.37516 24.8676 3.31341 24.7856 3.25366 24.7021C2.38538 23.8083 1.69526 22.6314 1.35522 21.4473C1.33467 21.404 1.31313 21.361 1.29272 21.3174C1.21879 21.1595 1.14609 20.9991 1.07397 20.8369C1.00834 20.6971 0.942383 20.5571 0.874756 20.4131C0.869352 20.4011 0.86441 20.3889 0.859131 20.377C0.819433 20.292 0.779404 20.2065 0.739014 20.1201C0.726332 20.0835 0.714244 20.0465 0.701904 20.0098C0.562358 19.6762 0.489489 19.4457 0.46167 19.2139C-0.432245 15.879 0.0272584 12.4076 1.37573 9.26367C3.35889 5.1343 6.72404 2.22242 10.8601 0.745117ZM20.0525 1.66406C16.0043 0.625998 11.9031 1.3042 8.35229 3.52539C7.73369 3.95325 7.17772 4.41327 6.62866 4.93457C6.50003 5.049 6.37057 5.16335 6.23804 5.28125C4.51615 6.92365 3.45168 9.26173 2.79761 11.5771C2.75467 11.7224 2.71196 11.8679 2.66772 12.0176C1.90011 15.0236 2.6549 18.0848 3.54175 20.9639C3.5626 21.0101 3.58302 21.0565 3.60425 21.1025C3.6983 21.2067 3.76573 21.2715 3.94702 21.4404C4.11264 21.7344 4.27138 22.0332 4.42554 22.334C4.48517 22.4399 4.5471 22.5445 4.60913 22.6484H4.90405C6.28101 19.3798 6.28184 19.3797 7.62964 16.0977C7.6802 15.973 7.73087 15.8481 7.78296 15.7197C8.02788 15.1157 8.27227 14.5111 8.51538 13.9062C10.4236 9.18897 10.4233 9.18819 12.3738 8.35645C12.4305 8.34827 12.4879 8.34249 12.5447 8.33496C12.4883 8.27575 12.4313 8.2157 12.3738 8.15527H14.6726V8.55762C14.6023 8.57104 14.532 8.58423 14.4617 8.59766C14.4047 8.71746 14.348 8.83864 14.2898 8.96094C14.1979 9.96785 14.2325 11.0005 14.4812 11.9805C14.4657 11.9754 14.4508 11.9695 14.4363 11.9648C14.4444 11.986 14.4525 12.0072 14.4607 12.0283C14.5483 12.1229 14.6112 12.2546 14.7322 12.5088C14.7756 12.6664 14.8193 12.8239 14.864 12.9863C15.2859 12.5638 15.6279 12.1263 15.9656 11.6279C15.9966 11.5843 16.0289 11.5419 16.0603 11.499C17.0712 10.0393 18.2973 8.82089 20.0134 8.2334C20.6846 8.10457 21.3461 8.05543 21.9939 8.08691C23.2132 8.10063 24.4818 8.49135 25.7458 9.3252C26.4651 9.86 26.9837 10.4316 27.5056 11.1748C27.0747 11.6906 27.0743 11.691 26.5476 12.1816C26.4807 12.1838 26.4189 12.1812 26.3611 12.1768C26.3594 12.1783 26.3579 12.1801 26.3562 12.1816C26.3556 12.1801 26.3548 12.1783 26.3542 12.1768C26.3145 12.1735 26.2772 12.1664 26.241 12.1602C26.1956 12.2019 26.1498 12.2433 26.1042 12.2852C26.1243 12.3172 26.145 12.3497 26.1648 12.3828C25.912 12.5157 25.6587 12.6483 25.3982 12.7852C25.3081 12.7149 25.2176 12.6447 25.1248 12.5723C24.9461 12.435 24.9458 12.435 24.7634 12.2949C24.6457 12.2039 24.5283 12.1124 24.407 12.0186C23.4512 11.3625 22.2787 11.4474 21.1843 11.5771C20.6535 11.805 20.2278 12.1051 19.7888 12.4707C19.3284 12.9062 18.9575 13.4426 18.6531 14.0752C17.8009 15.844 16.6364 17.3094 15.0554 18.4219H14.6726C14.7363 18.5598 14.8003 18.6977 14.866 18.8398C15.1096 19.3681 15.3528 19.897 15.5955 20.4258C15.7316 20.677 15.855 20.9306 15.9773 21.2148C16.0368 21.3431 16.0966 21.4713 16.158 21.6035C16.2461 21.7986 16.3217 21.9753 16.3855 22.1475C16.4513 22.2904 16.5181 22.4341 16.5857 22.5811C16.685 22.8227 16.7341 22.94 16.7576 23.0518H16.7791V23.4541L16.2058 23.4658C16.0873 23.466 15.9933 23.462 15.9109 23.4541H15.2468C14.9576 22.8974 14.6716 22.3387 14.3855 21.7803C14.3034 21.6223 14.2211 21.4645 14.1365 21.3018C14.0198 21.0731 14.0191 21.073 13.9001 20.8398C13.828 20.6997 13.7558 20.5594 13.6814 20.415C13.5232 20.0323 13.5232 20.0316 13.5232 19.4277C12.9975 19.6909 12.4758 19.9603 11.9548 20.2334C11.8077 20.3063 11.6602 20.379 11.5085 20.4541C10.4957 20.9932 10.0851 21.4852 9.55249 22.5273C9.47842 22.6259 9.42544 22.6927 9.3689 22.7432C9.35316 22.7714 9.33425 22.8059 9.30933 22.8506H9.16479C9.04421 22.8854 8.86985 22.9112 8.57983 22.9512C8.37837 22.918 8.17608 22.8848 7.96851 22.8506C8.22421 21.8581 8.39359 21.2087 8.5437 20.749C8.47494 20.9123 8.45991 20.949 8.36401 21.1768C8.29007 21.3565 8.21559 21.5365 8.1394 21.7217C7.95642 22.1657 7.77134 22.609 7.58569 23.0518C6.72885 23.1118 5.87195 23.1709 4.9939 23.2324C5.01222 23.2689 5.02983 23.3057 5.04858 23.3418C7.21293 26.5446 10.542 28.7354 14.1453 29.7393C14.8915 29.9017 15.6424 30.0152 16.3962 30.1094V30.0967C16.6394 30.0793 16.883 30.0619 17.1335 30.0439C18.5394 29.9292 19.8602 29.7519 21.1277 29.3857C21.3236 29.3022 21.5311 29.2295 21.7712 29.1533C21.9394 29.0986 22.1078 29.0437 22.281 28.9873C22.285 28.9864 22.2888 28.9853 22.2927 28.9844C22.3585 28.9589 22.4236 28.9329 22.488 28.9062C22.8846 28.7384 23.276 28.5447 23.6648 28.3232C23.9902 28.1343 24.3115 27.9266 24.6394 27.6963C24.7633 27.6249 24.8877 27.553 25.0154 27.4795L25.1843 27.5684C27.49 25.8025 29.0583 23.4115 29.9939 20.4307C31.0756 16.4543 30.6947 12.5859 28.9158 8.91797C27.2306 5.75793 24.6451 3.49107 21.5496 2.0791C21.5551 2.09079 21.5618 2.10289 21.5681 2.11621C21.4316 2.07496 21.2947 2.03371 21.1541 1.99121C20.9707 1.93701 20.7873 1.88299 20.5984 1.82715C20.4184 1.77344 20.2379 1.7194 20.0525 1.66406ZM29.2292 17.6162C29.2133 17.6246 29.1978 17.6316 29.1843 17.6387C29.1554 18.1236 29.108 18.5812 29.0291 19.0205C29.0319 19.022 29.0349 19.0239 29.0378 19.0254C29.0265 19.0705 29.0135 19.1153 29.0017 19.1602C28.7567 20.4057 28.2498 21.508 27.1951 22.667C25.9207 23.7424 24.3554 24.1984 22.7595 24.291C22.7325 24.293 22.7055 24.2942 22.6785 24.2959C22.63 24.2983 22.5815 24.3 22.533 24.3018C22.438 24.3059 22.3431 24.3099 22.2478 24.3105C21.8283 24.3151 21.4082 24.2963 20.9929 24.2588C20.728 24.1986 20.4737 24.132 20.2292 24.0576C20.0854 24.02 19.9412 23.978 19.7966 23.9316C19.6254 23.8638 19.4618 23.7911 19.3044 23.7158C19.2216 23.679 19.1407 23.6392 19.0603 23.5996C18.9388 23.5506 18.816 23.5046 18.6951 23.4541C18.7124 23.448 18.7295 23.4416 18.7468 23.4355C18.6536 23.383 18.5624 23.3277 18.4724 23.2705C18.4246 23.2651 18.371 23.2599 18.3113 23.2529C18.1034 23.0588 17.9772 22.9381 17.8748 22.8359C17.661 22.6583 17.4574 22.4626 17.2615 22.2471C17.1032 22.1521 16.9489 22.0354 16.7917 21.8809C16.722 21.7298 16.677 21.598 16.6511 21.4746C16.5771 21.3666 16.5041 21.2545 16.4324 21.1387C15.5059 19.5047 15.3056 19.1481 15.2615 18.7705C15.2555 18.73 15.2516 18.6883 15.2498 18.6396C15.2472 18.5736 15.2468 18.503 15.2468 18.4219C15.6037 18.1254 15.6039 18.1247 16.073 17.8047C16.2263 17.6986 16.3799 17.5927 16.5378 17.4834C16.7438 17.3552 16.852 17.2884 16.9705 17.2314C16.9701 17.2257 16.9708 17.2198 16.9705 17.2139C17.0337 17.1474 17.0977 17.0811 17.1628 17.0127H17.5457L17.7214 17.373C18.1984 18.3185 18.7048 19.1085 19.3943 19.7119C19.829 20.0207 20.2784 20.28 20.7566 20.5039C21.0528 20.6073 21.3643 20.6766 21.698 20.7051C21.9496 20.7139 22.1993 20.7055 22.446 20.6758C22.876 20.5897 23.2953 20.4667 23.7097 20.3242C23.7676 20.298 23.8255 20.2713 23.8826 20.2422C23.877 20.2393 23.8715 20.2363 23.866 20.2334C23.9239 20.2084 23.978 20.1841 24.0291 20.1621C24.1027 20.1208 24.1766 20.0786 24.2488 20.0322C24.3189 19.9665 24.3838 19.8988 24.448 19.835C24.4455 19.8336 24.4427 19.8324 24.4402 19.8311C24.5579 19.6925 24.5584 19.6921 24.6785 19.5508C24.7816 19.4274 24.8847 19.3039 24.991 19.1768C25.0725 19.0799 25.154 18.9825 25.2371 18.8838C25.538 18.4166 25.755 17.9023 25.9734 17.2139H22.3337V15.6035H29.2292V17.6162ZM11.991 12.1816C11.4674 12.8385 11.1976 13.4966 10.9109 14.2959C10.8648 14.4229 10.8187 14.5498 10.7712 14.6807C10.6729 14.9521 10.5756 15.2243 10.4783 15.4961C10.2254 16.202 9.96852 16.907 9.71167 17.6113C9.66104 17.7504 9.60954 17.8899 9.55737 18.0332C9.39261 18.484 9.22393 18.9331 9.05249 19.3809C9.03048 19.5747 8.95053 19.7607 8.82397 20.0645C8.95983 19.8213 9.1167 19.6477 9.34058 19.4443C9.33033 19.439 9.31961 19.4331 9.30933 19.4277C9.35688 19.3664 9.40751 19.3044 9.46069 19.2422C9.47104 19.2301 9.48147 19.2181 9.49194 19.2061C9.58381 18.9834 9.67633 18.761 9.77026 18.5391C9.87097 18.1686 9.9723 17.7962 10.0759 17.415C10.0923 17.4322 10.1078 17.449 10.1228 17.4648C10.2345 17.1126 10.347 16.7604 10.4587 16.4082C10.4707 16.425 10.4829 16.4422 10.4949 16.459C10.6787 15.9668 10.8693 15.4767 11.0691 14.9873C11.1396 14.8131 11.2103 14.6385 11.283 14.459C11.4546 14.035 11.6268 13.6109 11.7996 13.1875H12.1824C12.3752 13.6104 12.5671 14.0349 12.7576 14.459C12.8641 14.6946 12.971 14.9301 13.0808 15.1729C13.3321 15.8041 13.3318 15.8047 13.3318 16.4082H13.906C13.8448 16.1962 13.7779 15.988 13.7078 15.7822C13.4762 15.4921 13.302 15.1864 13.1316 14.7959C13.0644 14.6436 12.9977 14.4909 12.9285 14.334C12.8602 14.1758 12.7918 14.0174 12.7214 13.8545C12.6509 13.694 12.5802 13.5335 12.5076 13.3682C12.3343 12.9732 12.1624 12.5775 11.991 12.1816Z" fill="#ABAAAE"/>
</g>
<defs>
<clipPath id="clip0_38_2439">
<rect width="32" height="32" fill="white"/>
</clipPath>
</defs>
</svg>
