<svg width="16" height="16" viewBox="0 0 16 16" fill="none" xmlns="http://www.w3.org/2000/svg">
<g clip-path="url(#clip0_38_2526)">
<path d="M5.42944 0.372437C8.37563 -0.60729 11.2942 0.434471 13.5818 2.45349C14.9578 3.79348 15.9089 5.96345 15.988 7.91541C15.9923 8.13739 15.9954 8.3594 15.9968 8.58142C15.9978 8.68622 15.9988 8.79181 15.9998 8.89978C15.992 9.62292 15.865 10.3458 15.6414 11.0365C15.628 11.0782 15.6154 11.1201 15.6013 11.1615C15.5977 11.1719 15.5942 11.1823 15.5906 11.1927C15.5591 11.2839 15.5259 11.3744 15.491 11.4642C15.2954 11.9665 15.0461 12.4463 14.7517 12.891C14.5623 13.1774 14.3545 13.4495 14.1296 13.7025C14.018 13.8136 13.9038 13.9191 13.7888 14.0209C13.7647 14.0422 13.7389 14.0615 13.7146 14.0824C13.6262 14.1587 13.5383 14.234 13.448 14.3051C13.4387 14.3123 13.43 14.3203 13.4207 14.3275C13.3958 14.3469 13.3695 14.3642 13.3445 14.3832C13.2591 14.448 13.1736 14.5113 13.0867 14.5717C13.0454 14.6002 13.0033 14.6271 12.9617 14.6547C12.8798 14.709 12.7978 14.7623 12.7146 14.8129C12.7003 14.8215 12.6869 14.8317 12.6726 14.8402C12.6553 14.8505 12.6372 14.8593 12.6199 14.8695C12.5205 14.9279 12.4202 14.9833 12.3191 15.0365C12.2925 15.0505 12.2657 15.0639 12.239 15.0775C12.1428 15.1267 12.0458 15.1734 11.948 15.2181C11.91 15.2355 11.8719 15.2522 11.8337 15.2689C11.7335 15.3127 11.6328 15.3546 11.531 15.3939C11.5063 15.4035 11.4816 15.4129 11.4568 15.4222C11.3363 15.4674 11.2151 15.51 11.0925 15.5492C11.0824 15.5524 11.0724 15.5558 11.0623 15.559C10.9569 15.5922 10.8507 15.6227 10.7439 15.6517C10.7003 15.6637 10.6569 15.6766 10.613 15.6879C10.5441 15.7054 10.4746 15.7208 10.405 15.7367C10.3329 15.7533 10.2609 15.7706 10.1882 15.7855C10.172 15.7888 10.1556 15.7911 10.1394 15.7943C10.025 15.8172 9.91038 15.84 9.79468 15.8588C9.50421 15.9058 9.20978 15.9403 8.91187 15.9633C8.46488 15.9978 8.01014 16.0073 7.54956 15.9955C7.48091 15.992 7.41328 15.9855 7.34644 15.9799C7.29862 15.9782 7.25578 15.9749 7.21655 15.972C7.20423 15.9724 7.19188 15.9736 7.17944 15.974C7.1036 15.9674 7.03681 15.9541 6.97437 15.9379C6.61744 15.8836 6.27936 15.7944 5.93823 15.6683C5.91135 15.6596 5.88245 15.651 5.85229 15.641C5.80123 15.6192 5.75087 15.5958 5.69995 15.5736C5.64125 15.5491 5.58246 15.5232 5.52319 15.4965C5.50734 15.4894 5.49118 15.483 5.47534 15.476C5.41258 15.4492 5.34958 15.4224 5.28491 15.3949C5.00903 15.2751 4.74905 15.1432 4.49487 14.9886C4.30987 14.8855 4.12969 14.7769 3.95386 14.6605C3.93334 14.6557 3.91121 14.6512 3.88843 14.6459V14.6166C3.76155 14.5307 3.63685 14.441 3.5144 14.3461C3.39743 14.2602 3.28235 14.1712 3.17358 14.0746L2.9314 13.8402C2.88503 13.7951 2.83855 13.75 2.79077 13.7035C2.35108 13.2708 1.97352 12.8285 1.63647 12.3588C1.19698 11.9094 0.847094 11.3159 0.676514 10.7181C0.629799 10.6197 0.582125 10.5201 0.536865 10.4183C0.528482 10.4004 0.519864 10.3826 0.511475 10.3646C0.487046 10.3126 0.462374 10.2599 0.437256 10.2064C0.435939 10.2035 0.434652 10.2006 0.43335 10.1976C0.412115 10.1522 0.390522 10.1062 0.368896 10.0599C0.362294 10.0409 0.356758 10.0214 0.350342 10.0023C0.279049 9.83157 0.242153 9.71518 0.229248 9.59607C-0.213887 7.93194 0.0145149 6.20079 0.687256 4.6322C1.67876 2.5675 3.36149 1.11116 5.42944 0.372437ZM10.0261 0.832397C8.00206 0.313404 5.95188 0.65251 4.17651 1.76306C3.8672 1.977 3.58875 2.2065 3.31421 2.46716C3.24989 2.52438 3.18516 2.58204 3.1189 2.64099C2.25817 3.46213 1.72617 4.63093 1.39917 5.78845C1.37769 5.86111 1.35587 5.9343 1.33374 6.00916C0.949972 7.51237 1.32773 9.04307 1.77124 10.4828C1.78167 10.5059 1.79188 10.5291 1.80249 10.5521C1.84922 10.6038 1.88307 10.6369 1.97339 10.7211C2.05613 10.868 2.13562 11.0171 2.21265 11.1674C2.24273 11.2208 2.27607 11.2721 2.30737 11.3246H2.4519C3.14037 9.69032 3.14041 9.68997 3.81421 8.04919C3.83952 7.98682 3.86528 7.92401 3.89136 7.85974C4.01377 7.55781 4.13605 7.25582 4.25757 6.95349C5.21179 4.59463 5.21187 4.59404 6.18726 4.1781C6.21551 4.17402 6.24392 4.17111 6.27222 4.16736C6.24407 4.13778 6.21598 4.10771 6.18726 4.07751H7.33569V4.27869C7.30027 4.28546 7.26469 4.29145 7.22925 4.29822C7.20075 4.35812 7.17338 4.41968 7.14429 4.48083C7.09838 4.98418 7.11569 5.5007 7.23999 5.9906C7.2322 5.98808 7.22482 5.98515 7.21753 5.98279C7.2215 5.99318 7.22524 6.00366 7.22925 6.01404C7.27333 6.06134 7.30529 6.12672 7.36597 6.25427C7.38769 6.33316 7.40999 6.41226 7.43237 6.49353C7.64322 6.28234 7.8134 6.06296 7.98218 5.81384C7.99929 5.78975 8.01853 5.76719 8.03589 5.74353C8.54044 5.01667 9.15117 4.40942 10.0066 4.11658C10.3415 4.05228 10.6716 4.02781 10.9949 4.04333C11.6051 4.04981 12.2401 4.24512 12.8728 4.66248C13.0526 4.79615 13.207 4.93504 13.3494 5.0863L13.5554 5.32361C13.6221 5.40686 13.6874 5.49433 13.7527 5.58728C13.5372 5.84519 13.5365 5.84586 13.2732 6.09119C13.2403 6.09225 13.2099 6.0904 13.1814 6.08826C13.1804 6.08916 13.1795 6.09028 13.1785 6.09119L13.1765 6.08826C13.157 6.08665 13.1387 6.08255 13.1208 6.07947C13.0973 6.10111 13.0732 6.12219 13.0496 6.14392C13.0596 6.15998 13.0719 6.17519 13.0818 6.19177C12.9556 6.25811 12.829 6.3246 12.699 6.39294C12.6539 6.35778 12.6087 6.32272 12.5623 6.2865C12.4729 6.21784 12.4728 6.21692 12.3816 6.14685C12.3229 6.10143 12.2634 6.05595 12.2029 6.00916C12.1432 5.96824 12.082 5.93276 12.0193 5.90271C11.8937 5.84255 11.7623 5.8035 11.6277 5.77869C11.4932 5.75396 11.3554 5.74374 11.2166 5.74353C11.0082 5.74314 10.7975 5.76385 10.5925 5.78845L10.0945 6.07849C10.0349 6.12217 9.97575 6.1676 9.91675 6.21619C9.6766 6.4374 9.48381 6.71148 9.3269 7.03748C8.9009 7.92173 8.3184 8.65411 7.52808 9.21033H7.33667C7.36858 9.2794 7.40047 9.34912 7.43335 9.42029C7.55546 9.68508 7.67696 9.95017 7.79858 10.2152C7.86621 10.3401 7.92822 10.4665 7.98901 10.6078C8.01875 10.6718 8.04822 10.7361 8.07886 10.8021C8.11915 10.8913 8.15315 10.9731 8.18335 11.0521C8.21947 11.1306 8.25555 11.2096 8.29272 11.2904C8.34235 11.4112 8.3669 11.4699 8.37866 11.5258H8.3894V11.7269C8.1808 11.7327 8.06152 11.7339 7.97144 11.7269H7.62378C7.47916 11.4486 7.33616 11.1692 7.19312 10.89C7.15203 10.811 7.11045 10.7322 7.06812 10.6508C7.00979 10.5364 7.00946 10.536 6.94995 10.4193C6.91393 10.3494 6.87769 10.2795 6.84058 10.2074C6.76149 10.0161 6.76147 10.016 6.76147 9.71423C6.49874 9.84575 6.23768 9.98008 5.97729 10.1166C5.9038 10.153 5.83035 10.1894 5.75464 10.2269C5.24822 10.4965 5.04241 10.7421 4.77612 11.2631C4.739 11.3124 4.71265 11.3462 4.68433 11.3715C4.67646 11.3856 4.6675 11.4028 4.65503 11.4252H4.573C4.51304 11.4413 4.42797 11.4559 4.28979 11.475C4.18909 11.4584 4.08789 11.4423 3.98413 11.4252C4.11273 10.926 4.1978 10.6005 4.27319 10.3705C4.23743 10.4554 4.23099 10.4728 4.18237 10.5883C4.1454 10.6781 4.10816 10.7682 4.07007 10.8607C3.97855 11.0828 3.88558 11.3043 3.79272 11.5258C3.36495 11.5557 2.93711 11.5849 2.49878 11.6156C2.50906 11.6361 2.52045 11.6559 2.53101 11.6761C3.61322 13.2738 5.27303 14.3682 7.07202 14.8695C7.44517 14.9507 7.82107 15.007 8.198 15.0541V15.0482C8.31945 15.0395 8.44103 15.0308 8.56616 15.0219C9.27665 14.9639 9.9438 14.873 10.5837 14.6859C10.676 14.6475 10.7733 14.6121 10.8855 14.5765C10.9696 14.5492 11.0538 14.5217 11.1404 14.4935C11.1427 14.493 11.1449 14.4921 11.1472 14.4916C11.1765 14.4802 11.2054 14.4683 11.2341 14.4564C11.3767 14.3964 11.5184 14.3307 11.6589 14.2572C11.8822 14.1387 12.0983 14.0038 12.3201 13.848C12.382 13.8124 12.4438 13.7763 12.5076 13.7396L12.5916 13.7836C13.7444 12.9006 14.529 11.7057 14.9968 10.2152C15.5376 8.22712 15.3471 6.29323 14.4578 4.45935C13.6155 2.87995 12.3231 1.74743 10.7761 1.04138C10.7786 1.04659 10.7812 1.05214 10.7839 1.05798C10.7157 1.03736 10.6472 1.01673 10.5769 0.995483C10.4852 0.968384 10.393 0.941372 10.2986 0.913452C10.2088 0.886643 10.1187 0.860019 10.0261 0.832397ZM14.614 7.88025V8.80798C14.6059 8.81226 14.5984 8.8161 14.5916 8.8197C14.5771 9.06196 14.5538 9.29065 14.5144 9.51013C14.5159 9.51091 14.5178 9.51228 14.5193 9.51306C14.5145 9.53217 14.5076 9.55071 14.5027 9.5697C14.3809 10.1967 14.1277 10.7507 13.5974 11.3334C12.9571 11.8738 12.17 12.1011 11.3679 12.1459C11.3637 12.1462 11.3595 12.1466 11.3552 12.1469C11.3321 12.1481 11.309 12.1488 11.2859 12.1498C11.172 12.1553 11.0579 12.1573 10.9431 12.1527C10.7938 12.1497 10.6447 12.1426 10.4968 12.1293C10.3664 12.0997 10.2413 12.0662 10.1208 12.0297C10.0469 12.0105 9.97252 11.99 9.89819 11.9662C9.81422 11.9329 9.73426 11.8966 9.65698 11.8597C9.61423 11.8408 9.57246 11.8206 9.53101 11.8002C9.46991 11.7755 9.40823 11.7523 9.34741 11.7269C9.35626 11.7238 9.36493 11.7203 9.37378 11.7172C9.32608 11.6903 9.27914 11.6625 9.23315 11.6332C9.21015 11.6306 9.18446 11.6297 9.15601 11.6263C9.05772 11.5345 8.99684 11.4744 8.94702 11.4252C8.83672 11.3343 8.73143 11.2343 8.63062 11.1234C8.55168 11.076 8.47463 11.0178 8.39624 10.9408C8.36116 10.8649 8.33789 10.7986 8.32495 10.7367C8.28816 10.683 8.25222 10.6273 8.21655 10.5697C7.62401 9.52466 7.62378 9.52403 7.62378 9.21033C7.80197 9.06231 7.80243 9.06265 8.03687 8.90271C8.11352 8.84965 8.19031 8.79624 8.26929 8.74158C8.37202 8.67761 8.42599 8.64402 8.48511 8.6156C8.48495 8.61275 8.48526 8.60971 8.48511 8.60681C8.51665 8.57366 8.54831 8.54038 8.58081 8.50623H8.77319L8.86108 8.68689C9.09732 9.15514 9.34744 9.54744 9.68726 9.84802C9.91098 10.0079 10.1427 10.1404 10.3894 10.2552C10.5221 10.3007 10.6608 10.3333 10.8083 10.349C10.9581 10.3566 11.1063 10.351 11.2527 10.3314C11.449 10.2905 11.641 10.2348 11.8308 10.1703C11.8676 10.1541 11.905 10.1389 11.9412 10.1205C11.9385 10.1191 11.9351 10.118 11.9324 10.1166C11.954 10.1072 11.9752 10.0987 11.9949 10.0902C12.0382 10.0665 12.0824 10.0432 12.1248 10.016C12.1599 9.98306 12.1922 9.94936 12.2244 9.91736C12.2231 9.91668 12.2217 9.91608 12.2205 9.91541C12.2792 9.84628 12.2796 9.84639 12.3396 9.77576C12.3912 9.71402 12.4427 9.65187 12.4958 9.58826C12.5342 9.54273 12.5721 9.49687 12.6111 9.45056C12.7648 9.21445 12.8754 8.95569 12.9861 8.60681H11.1667V7.80212H14.615C14.615 7.82833 14.614 7.85437 14.614 7.88025ZM5.99585 6.09119C5.73408 6.41956 5.59915 6.74823 5.45581 7.14783C5.43279 7.21132 5.40922 7.27479 5.3855 7.34021C5.3363 7.47601 5.28771 7.61241 5.23901 7.74841C5.11256 8.10144 4.98367 8.4538 4.85522 8.80603C4.82994 8.87547 4.8051 8.94543 4.77905 9.01697C4.69665 9.24243 4.61187 9.46685 4.52612 9.6908C4.51449 9.79257 4.47104 9.89008 4.4021 10.056C4.47284 9.92251 4.5511 9.82976 4.66968 9.72205C4.66479 9.71948 4.65994 9.71681 4.65503 9.71423C4.68151 9.68007 4.71101 9.64637 4.74097 9.61169C4.78845 9.49653 4.83691 9.38176 4.8855 9.26697C4.93563 9.08256 4.98626 8.89714 5.03784 8.7074C5.04608 8.71606 5.05373 8.72482 5.06128 8.73279C5.11715 8.55664 5.17338 8.38061 5.22925 8.20447C5.23522 8.21283 5.24086 8.2215 5.24683 8.22986C5.33882 7.98358 5.43494 7.73845 5.53491 7.49353C5.5701 7.40654 5.6051 7.31948 5.64136 7.22986C5.72713 7.01797 5.81281 6.80574 5.89917 6.59412H6.09155C6.18796 6.80552 6.28343 7.01787 6.37866 7.22986C6.43185 7.34748 6.485 7.46513 6.53979 7.5863C6.66549 7.90201 6.66577 7.90252 6.66577 8.20447H6.95288C6.92111 8.09446 6.88496 7.98696 6.84839 7.88025C6.73637 7.73798 6.64951 7.58883 6.56616 7.39783C6.53255 7.32167 6.49825 7.24582 6.46362 7.16736C6.42949 7.08828 6.39625 7.0086 6.36108 6.92712C6.32585 6.8469 6.28996 6.76661 6.25366 6.68396C6.16711 6.48666 6.08148 6.28893 5.99585 6.09119Z" fill="#ABAAAE"/>
</g>
<defs>
<clipPath id="clip0_38_2526">
<rect width="16" height="16" fill="white"/>
</clipPath>
</defs>
</svg>
