<svg width="48" height="48" viewBox="0 0 48 48" fill="none" xmlns="http://www.w3.org/2000/svg">
<g clip-path="url(#clip0_38_2352)">
<path d="M16.29 1.11743C25.1287 -1.82169 33.8832 1.30333 40.7461 7.3606C44.874 11.3805 47.7281 17.8886 47.9658 23.7444C47.9787 24.4111 47.9868 25.0785 47.9912 25.7454C47.9941 26.0596 47.997 26.3738 48 26.6975C47.9712 29.3854 47.4023 32.0757 46.3994 34.5774C45.4383 36.9831 44.0703 39.2147 42.3887 41.1067C42.2223 41.2723 42.0546 41.4343 41.8857 41.593C41.88 41.5984 41.8748 41.6043 41.8691 41.6096C41.8296 41.6467 41.7878 41.6813 41.748 41.718C41.6231 41.8336 41.4983 41.948 41.3721 42.0598C41.3614 42.0693 41.3515 42.0797 41.3408 42.0891C41.3093 42.1169 41.2767 42.1436 41.2451 42.1711C41.113 42.2864 40.9802 42.3997 40.8467 42.511C40.7977 42.5518 40.7484 42.5918 40.6992 42.6321C40.5747 42.7342 40.45 42.8351 40.3242 42.9338C40.2743 42.973 40.2239 43.0114 40.1738 43.05C40.0345 43.1575 39.8947 43.263 39.7539 43.3665C39.7397 43.3769 39.7262 43.3883 39.7119 43.3987C39.6957 43.4106 39.6784 43.421 39.6621 43.4329C39.5057 43.5466 39.3486 43.658 39.1904 43.7668C39.1696 43.7812 39.1488 43.7956 39.1279 43.8098C36.9237 45.3152 34.552 46.352 32.0488 47.012C31.9923 47.027 31.9356 47.0413 31.8789 47.0559C31.7701 47.0838 31.661 47.1105 31.5518 47.137C29.1379 47.7272 26.6162 47.9844 24.0244 47.9993L23.3379 47.9983C23.1087 47.9959 22.8787 47.9915 22.6484 47.9856C22.4258 47.9743 22.2066 47.9575 21.9902 47.9387C21.8705 47.9341 21.7613 47.9255 21.6602 47.9182C21.6195 47.9195 21.5782 47.9208 21.5371 47.9221C21.2888 47.9005 21.073 47.8599 20.8711 47.804C20.7695 47.7881 20.6681 47.7728 20.5674 47.7551C20.2766 47.7041 19.9898 47.6443 19.7051 47.5774C19.0903 47.4328 18.4863 47.2519 17.8799 47.0305C17.7797 46.9983 17.6725 46.9627 17.5566 46.9241C17.4096 46.8613 17.2638 46.7955 17.1172 46.7317C16.8992 46.6408 16.6807 46.5438 16.46 46.4426C16.4484 46.4374 16.4364 46.4332 16.4248 46.428C16.2365 46.3478 16.0475 46.2684 15.8535 46.1858C15.0441 45.8342 14.2797 45.4486 13.5332 44.9983C12.9586 44.6795 12.3996 44.3427 11.8545 43.9817C11.7948 43.9678 11.732 43.9532 11.666 43.9377V43.8557C11.3083 43.6136 10.9573 43.3599 10.6113 43.094C9.96952 42.6282 9.36045 42.1128 8.80957 41.5374C8.80421 41.5321 8.79832 41.527 8.79297 41.5217C8.65386 41.3863 8.51442 41.2511 8.37109 41.1116C7.25758 40.0157 6.27226 38.9025 5.38379 37.7346C5.21294 37.5101 5.04668 37.2828 4.88281 37.054C3.57928 35.7125 2.54228 33.9467 2.03223 32.1692C1.89 31.8698 1.74906 31.5659 1.61133 31.2561C1.51285 31.0464 1.41396 30.8364 1.3125 30.6204C1.30732 30.6088 1.30296 30.5967 1.29785 30.5852C1.23524 30.4512 1.17215 30.3163 1.1084 30.1799C1.09324 30.1361 1.07928 30.0919 1.06445 30.0481C0.848031 29.5348 0.738769 29.1824 0.695312 28.8303C-0.648966 23.8252 0.039577 18.6156 2.06348 13.8967C5.03817 7.70228 10.0857 3.33347 16.29 1.11743ZM30.0791 2.49634C24.0066 0.939126 17.8547 1.95638 12.5283 5.28833C11.6003 5.93017 10.766 6.61957 9.94238 7.40161C9.74944 7.57326 9.55622 7.74527 9.35742 7.92212C6.77447 10.3858 5.17739 13.8932 4.19629 17.3665C4.13188 17.5843 4.06734 17.8021 4.00098 18.0266C2.84788 22.5422 3.98461 27.1409 5.31738 31.4651C5.34565 31.5277 5.37363 31.5903 5.40234 31.6526C5.54478 31.8105 5.64715 31.9062 5.9209 32.1614C6.16934 32.6024 6.40742 33.05 6.63867 33.5012C6.72808 33.66 6.82009 33.817 6.91309 33.9729H7.35645C9.4219 29.07 9.42264 29.0698 11.4443 24.1467C11.5202 23.9598 11.5957 23.7729 11.6738 23.5803C12.0413 22.6741 12.4077 21.767 12.7725 20.8596C15.6351 13.783 15.6354 13.7832 18.5615 12.5354C18.6461 12.5232 18.7307 12.5115 18.8154 12.5002C18.7316 12.4122 18.6471 12.3235 18.5615 12.2336H22.0088V12.8372C21.9034 12.8573 21.7978 12.8766 21.6924 12.8967C21.607 13.0762 21.5217 13.2574 21.4346 13.4407C21.2967 14.9511 21.3487 16.4999 21.7217 17.97C21.6984 17.9624 21.6761 17.9546 21.6543 17.9475C21.6669 17.9804 21.6797 18.0133 21.6924 18.0461C21.8225 18.1878 21.9184 18.384 22.0986 18.7629C22.1638 18.9995 22.2288 19.236 22.2959 19.4797C22.9287 18.846 23.4418 18.1893 23.9482 17.4417C23.998 17.3716 24.0501 17.3035 24.1006 17.2346C25.615 15.0514 27.4509 13.2292 30.0195 12.3499C31.0236 12.1571 32.0132 12.0837 32.9824 12.1301C34.8138 12.149 36.7193 12.7359 38.6182 13.9885L39.0098 14.2922C39.892 15.0089 40.5729 15.7876 41.2578 16.7629C40.6116 17.5364 40.611 17.5361 39.8213 18.2717C39.7204 18.275 39.6271 18.2726 39.54 18.2659C39.538 18.2677 39.5363 18.2699 39.5342 18.2717C39.5334 18.2697 39.532 18.2679 39.5312 18.2659C39.4711 18.261 39.4141 18.2529 39.3594 18.2434C39.2918 18.3055 39.224 18.3676 39.1562 18.4299C39.186 18.4776 39.2177 18.5253 39.2471 18.5745C38.8679 18.7737 38.4883 18.9727 38.0977 19.178C37.9625 19.0725 37.8268 18.9673 37.6875 18.8586C37.4193 18.6526 37.4192 18.6519 37.1455 18.4417C36.969 18.3051 36.7922 18.1682 36.6104 18.0276C35.8605 17.513 35.0216 17.3042 34.1572 17.2483C34.0899 17.2439 34.0226 17.2382 33.9551 17.2356C33.2314 17.2083 32.4932 17.2816 31.7773 17.3665L30.2422 18.262C30.0662 18.3924 29.8917 18.5293 29.7168 18.6741C29.0103 19.3331 28.4436 20.1489 27.9795 21.1135C26.7014 23.7665 24.9552 25.9634 22.584 27.6321H22.0088C22.1045 27.8392 22.2003 28.0467 22.2988 28.26C22.6627 29.0491 23.0253 29.8393 23.3877 30.6292C23.594 31.009 23.7809 31.3917 23.9658 31.8215C24.0552 32.0142 24.1452 32.207 24.2373 32.4055C24.3697 32.6986 24.4843 32.9634 24.5801 33.2219C24.6785 33.4359 24.7777 33.6513 24.8789 33.8713C25.0277 34.2335 25.0995 34.41 25.1348 34.5774H25.1689V35.1809C24.5043 35.1994 24.1414 35.2074 23.8652 35.1809H22.8711C22.4373 34.3459 22.0072 33.5088 21.5781 32.6711C21.4548 32.4339 21.3312 32.1968 21.2041 31.9524C21.0291 31.6094 21.0291 31.609 20.8506 31.259C20.7423 31.0489 20.634 30.8388 20.5225 30.6223C20.2851 30.0483 20.2852 30.0477 20.2852 29.1418C19.4967 29.5366 18.7141 29.9402 17.9326 30.3499C17.7118 30.4592 17.4912 30.5692 17.2637 30.6819C15.7443 31.4906 15.128 32.2272 14.3291 33.7903C14.2181 33.9379 14.1383 34.0379 14.0537 34.1135C14.03 34.1561 14.0025 34.2081 13.9648 34.2756H13.749C13.568 34.3281 13.3058 34.3658 12.8691 34.426C12.5672 34.3762 12.2652 34.3269 11.9541 34.2756C12.3355 32.7952 12.5873 31.8238 12.8115 31.135C12.7124 31.3704 12.6875 31.4287 12.5459 31.7649C12.435 32.0344 12.3242 32.3046 12.21 32.5823C11.9354 33.2484 11.6574 33.9131 11.3789 34.5774C10.094 34.6674 8.80887 34.7566 7.49219 34.8489C7.52033 34.9049 7.54735 34.9614 7.57617 35.0168C10.8228 39.8188 15.8144 43.1033 21.2178 44.6086C22.3374 44.8523 23.4638 45.025 24.5947 45.1663V45.1448C24.9595 45.1187 25.3244 45.0925 25.7002 45.0657C27.8097 44.8935 29.7916 44.628 31.6934 44.0784C31.9868 43.9534 32.2976 43.8438 32.6572 43.7297C32.9093 43.6477 33.1612 43.5653 33.4209 43.4807C33.4291 43.4789 33.4373 43.4767 33.4453 43.4749C33.5556 43.432 33.6646 43.388 33.7725 43.343C34.2047 43.1588 34.6337 42.9557 35.0596 42.7297C35.7002 42.3845 36.3217 41.9925 36.96 41.5442C37.1456 41.4373 37.3312 41.3301 37.5225 41.22C37.6063 41.264 37.691 41.3075 37.7754 41.3518C41.2341 38.703 43.5877 35.1172 44.9912 30.6458C46.6138 24.6812 46.0415 18.8791 43.373 13.3772C40.8452 8.637 36.9678 5.23536 32.3242 3.11743C32.3327 3.13533 32.3418 3.15459 32.3516 3.17505C32.1469 3.11321 31.9423 3.05126 31.7314 2.98755C31.4563 2.90622 31.1809 2.82427 30.8975 2.74048C30.6275 2.65991 30.3573 2.57935 30.0791 2.49634ZM43.8438 26.425C43.8199 26.4376 43.7976 26.4486 43.7773 26.4592C43.7339 27.1864 43.6623 27.8728 43.5439 28.5315C43.5481 28.5337 43.5525 28.5362 43.5566 28.5383C43.5409 28.6008 43.5231 28.6628 43.5068 28.7249C43.1405 30.5997 42.3786 32.2568 40.792 34.0002C38.8782 35.6153 36.5275 36.2999 34.1309 36.4377C34.0977 36.4401 34.0645 36.4425 34.0312 36.4446C33.9938 36.4465 33.9564 36.4488 33.9189 36.4504C33.6101 36.467 33.3003 36.4713 32.9893 36.4631C32.4875 36.4575 31.986 36.4338 31.4893 36.3889C31.1006 36.3006 30.7275 36.2016 30.3682 36.093C30.1442 36.035 29.9196 35.9699 29.6943 35.8977C29.4266 35.7917 29.1709 35.679 28.9258 35.5608C28.8295 35.5177 28.7356 35.4707 28.6416 35.425C28.4415 35.3445 28.2411 35.264 28.042 35.1809C28.0684 35.1717 28.0947 35.1618 28.1211 35.1526C27.9812 35.0737 27.844 34.9914 27.709 34.9055C27.6373 34.8974 27.5574 34.8896 27.4678 34.8792C27.1575 34.5893 26.9678 34.4088 26.8145 34.2561C26.4924 33.9888 26.1857 33.694 25.8906 33.3694C25.6539 33.2272 25.4217 33.0527 25.1865 32.8215C25.0815 32.5942 25.0134 32.3958 24.9746 32.2102C24.864 32.0489 24.7556 31.8812 24.6484 31.7083C23.2422 29.2282 22.949 28.7102 22.8877 28.136C22.8866 28.1279 22.8857 28.1198 22.8848 28.1116C22.8825 28.0883 22.8805 28.0649 22.8789 28.0413C22.8774 28.0205 22.876 27.9991 22.875 27.9768C22.8704 27.8727 22.8711 27.761 22.8711 27.6321C23.4061 27.1877 23.406 27.1872 24.1094 26.7073C24.3394 26.5481 24.5697 26.3889 24.8066 26.2249C25.1164 26.032 25.2788 25.9315 25.457 25.8459C25.4566 25.8376 25.4565 25.8291 25.4561 25.8206C25.5509 25.7209 25.6465 25.6215 25.7441 25.5188H26.3184C26.4053 25.6973 26.4924 25.8759 26.582 26.0598C27.2972 27.4776 28.0561 28.6626 29.0898 29.5676C29.7405 30.0298 30.4135 30.4178 31.1289 30.7532C31.5714 30.9082 32.036 31.0152 32.5342 31.0588C32.9175 31.0728 33.298 31.0585 33.6738 31.0129C34.3131 30.8846 34.9374 30.704 35.5537 30.4924C35.6445 30.4514 35.7347 30.4082 35.8242 30.3625C35.8159 30.3582 35.8072 30.3542 35.7988 30.3499C35.8861 30.3122 35.9681 30.2765 36.0449 30.2434C36.1553 30.1814 36.2659 30.1176 36.374 30.0481C36.4798 29.949 36.5799 29.8505 36.6768 29.7542C36.6716 29.7514 36.6663 29.749 36.6611 29.7463C36.8377 29.5386 36.8375 29.5383 37.0176 29.3264C37.1724 29.1411 37.3278 28.9558 37.4873 28.7649C37.6102 28.6189 37.7322 28.4723 37.8574 28.3235C38.308 27.6234 38.6319 26.852 38.959 25.8206H33.501V23.4055H43.8438V26.425ZM17.9863 18.2717C17.2008 19.257 16.7973 20.2445 16.3672 21.4436C16.298 21.6344 16.2285 21.8252 16.1572 22.0217C16.0096 22.4291 15.8629 22.8374 15.7168 23.2454C15.3375 24.3042 14.9526 25.3608 14.5674 26.4172C14.4915 26.6257 14.4151 26.8343 14.3369 27.0491C14.0904 27.7237 13.8366 28.3956 13.5801 29.0657C13.5479 29.3593 13.4273 29.64 13.2354 30.1008C13.4397 29.7341 13.6755 29.4734 14.0127 29.1672L13.9648 29.1418C14.0403 29.0446 14.1212 28.9466 14.2061 28.8479C14.2157 28.8367 14.2247 28.8249 14.2344 28.8137C14.3739 28.4756 14.5146 28.138 14.6572 27.801C14.8076 27.2478 14.9595 26.6915 15.1143 26.1223C15.1393 26.1486 15.1627 26.1743 15.1855 26.1985C15.3532 25.6699 15.5208 25.1411 15.6885 24.6125C15.7056 24.6366 15.7231 24.6608 15.7402 24.6848C16.0158 23.9473 16.3051 23.2142 16.6045 22.4807C16.7102 22.2194 16.8159 21.9579 16.9248 21.6887C17.1822 21.0528 17.44 20.4166 17.6992 19.7815H18.2744C18.5637 20.4158 18.85 21.0517 19.1357 21.6877C19.2957 22.0415 19.4563 22.3955 19.6211 22.76C19.9039 23.4703 19.9745 23.6479 19.9922 24.0745C19.9981 24.2166 19.998 24.3863 19.998 24.6125H20.8594C20.7675 24.2944 20.6669 23.982 20.5615 23.6731C20.2144 23.2381 19.9538 22.7792 19.6982 22.1936C19.5974 21.9651 19.4965 21.7366 19.3926 21.5012C19.2902 21.264 19.1875 21.0259 19.082 20.7815C18.9763 20.5409 18.8706 20.2999 18.7617 20.052C18.5018 19.4594 18.2435 18.8656 17.9863 18.2717Z" fill="#ABAAAE"/>
</g>
<defs>
<clipPath id="clip0_38_2352">
<rect width="48" height="48" fill="white"/>
</clipPath>
</defs>
</svg>
